<?xml version="1.0" standalone="no"?>
<!DOCTYPE svg PUBLIC "-//W3C//DTD SVG 20010904//EN"
 "http://www.w3.org/TR/2001/REC-SVG-20010904/DTD/svg10.dtd">
<svg version="1.0" xmlns="http://www.w3.org/2000/svg"
 width="300.000000pt" height="216.000000pt" viewBox="0 0 300.000000 216.000000"
 preserveAspectRatio="xMidYMid meet">

<g transform="translate(0.000000,216.000000) scale(0.100000,-0.100000)"
fill="#000000" stroke="none">
<path d="M356 2089 c-113 -27 -224 -121 -279 -237 l-32 -67 0 -710 0 -710 32
-67 c44 -94 109 -160 202 -206 l75 -37 1145 0 1146 0 67 32 c94 44 160 109
206 202 l37 75 0 711 0 711 -37 75 c-46 93 -112 158 -206 202 l-67 32 -1125 2
c-658 1 -1141 -3 -1164 -8z m1004 -579 l0 -140 -310 0 -310 0 0 -75 0 -75 268
-2 267 -3 3 -132 3 -133 -271 0 -270 0 0 -85 0 -85 318 -2 317 -3 3 -137 3
-138 -501 0 -500 0 0 575 0 575 490 0 490 0 0 -140z m876 125 c110 -19 217
-68 283 -130 61 -57 116 -160 136 -254 19 -91 19 -265 0 -354 -30 -144 -114
-262 -231 -324 -116 -61 -146 -66 -511 -70 l-333 -5 0 576 0 576 284 0 c209 0
307 -4 372 -15z"/>
<path d="M1940 1075 l0 -295 100 0 c113 0 149 11 196 59 44 45 59 106 59 241
0 135 -17 192 -70 239 -45 39 -91 51 -197 51 l-88 0 0 -295z"/>
</g>
</svg>
